<mxfile host="app.diagrams.net" modified="2021-02-25T07:48:28.452Z" agent="5.0 (Macintosh; Intel Mac OS X 10_13_6) AppleWebKit/537.36 (KHTML, like Gecko) Chrome/88.0.4324.182 Safari/537.36" etag="D4bmmc2j-AZVs4zli_eY" version="14.4.3" type="github">
  <diagram id="prtHgNgQTEPvFCAcTncT" name="Page-1">
    <mxGraphModel dx="1408" dy="888" grid="1" gridSize="10" guides="1" tooltips="1" connect="1" arrows="1" fold="1" page="1" pageScale="1" pageWidth="827" pageHeight="1169" math="0" shadow="0">
      <root>
        <mxCell id="0" />
        <mxCell id="1" parent="0" />
        <mxCell id="nQnoEyGICxjIxf7FkVJl-16" value="&lt;div style=&quot;text-align: left&quot;&gt;&lt;b style=&quot;text-align: center&quot;&gt;&amp;nbsp;LoRa Server&lt;/b&gt;&lt;br&gt;&lt;/div&gt;" style="rounded=1;whiteSpace=wrap;html=1;labelBackgroundColor=none;fillColor=#ffffff;fontColor=#000000;align=left;arcSize=5;strokeColor=#000000;verticalAlign=bottom;points=[[0.25,0,0],[0.5,0,0],[0.75,0,0],[1,0.25,0],[1,0.5,0],[1,0.75,0],[0.75,1,0],[0.5,1,0],[0.25,1,0],[0,0.75,0],[0,0.5,0],[0,0.25,0]];dashed=1;" parent="1" vertex="1">
          <mxGeometry x="40" y="680" width="650" height="280" as="geometry" />
        </mxCell>
        <mxCell id="nQnoEyGICxjIxf7FkVJl-22" value="&lt;b&gt;LoRa Application Server&lt;br&gt;&lt;/b&gt;" style="rounded=1;whiteSpace=wrap;html=1;labelBackgroundColor=none;fillColor=#dae8fc;fontColor=#000000;align=center;arcSize=10;strokeColor=#6c8ebf;points=[[0.25,0,0],[0.5,0,0],[0.75,0,0],[1,0.25,0],[1,0.5,0],[1,0.75,0],[0.75,1,0],[0.5,1,0],[0.25,1,0],[0,0.75,0],[0,0.5,0],[0,0.25,0]];dashed=1;" parent="1" vertex="1">
          <mxGeometry x="450" y="700" width="160" height="60" as="geometry" />
        </mxCell>
        <mxCell id="nQnoEyGICxjIxf7FkVJl-23" value="&lt;b&gt;LoRa Network Server&lt;/b&gt;" style="rounded=1;whiteSpace=wrap;html=1;labelBackgroundColor=none;fillColor=#dae8fc;fontColor=#000000;align=center;arcSize=10;strokeColor=#6c8ebf;points=[[0.25,0,0],[0.5,0,0],[0.75,0,0],[1,0.25,0],[1,0.5,0],[1,0.75,0],[0.75,1,0],[0.5,1,0],[0.25,1,0],[0,0.75,0],[0,0.5,0],[0,0.25,0]];dashed=1;" parent="1" vertex="1">
          <mxGeometry x="450" y="860" width="160" height="60" as="geometry" />
        </mxCell>
        <mxCell id="nQnoEyGICxjIxf7FkVJl-25" value="&lt;b&gt;业务App&lt;/b&gt;" style="rounded=1;whiteSpace=wrap;html=1;labelBackgroundColor=none;fillColor=#f5f5f5;fontColor=#333333;align=center;arcSize=10;strokeColor=#666666;points=[[0.25,0,0],[0.5,0,0],[0.75,0,0],[1,0.25,0],[1,0.5,0],[1,0.75,0],[0.75,1,0],[0.5,1,0],[0.25,1,0],[0,0.75,0],[0,0.5,0],[0,0.25,0]];" parent="1" vertex="1">
          <mxGeometry x="850" y="570" width="160" height="110.00000000000001" as="geometry" />
        </mxCell>
        <mxCell id="nQnoEyGICxjIxf7FkVJl-30" value="&lt;div style=&quot;text-align: left&quot;&gt;&lt;div style=&quot;text-align: center&quot;&gt;&lt;b&gt;gRPC&lt;/b&gt;&lt;/div&gt;&lt;/div&gt;" style="edgeStyle=none;rounded=0;html=1;jettySize=auto;orthogonalLoop=1;strokeColor=#A8A8A8;strokeWidth=2;fontColor=#000000;jumpStyle=none;exitX=0.5;exitY=1;exitDx=0;exitDy=0;exitPerimeter=0;startArrow=classic;startFill=1;" parent="1" source="nQnoEyGICxjIxf7FkVJl-22" target="nQnoEyGICxjIxf7FkVJl-23" edge="1">
          <mxGeometry width="200" relative="1" as="geometry">
            <mxPoint x="385.53" y="750" as="sourcePoint" />
            <mxPoint x="500" y="870" as="targetPoint" />
          </mxGeometry>
        </mxCell>
        <mxCell id="nQnoEyGICxjIxf7FkVJl-31" value="&lt;div style=&quot;text-align: left&quot;&gt;&lt;div style=&quot;text-align: center&quot;&gt;&lt;b&gt;MQTT&lt;/b&gt;&lt;/div&gt;&lt;/div&gt;" style="edgeStyle=none;rounded=0;html=1;jettySize=auto;orthogonalLoop=1;strokeColor=#A8A8A8;strokeWidth=2;fontColor=#000000;jumpStyle=none;exitX=0;exitY=0.5;exitDx=0;exitDy=0;exitPerimeter=0;startArrow=classic;startFill=1;entryX=1;entryY=0.5;entryDx=0;entryDy=0;entryPerimeter=0;" parent="1" source="nQnoEyGICxjIxf7FkVJl-23" target="dtYK3EFexsv6tl9zOkRL-7" edge="1">
          <mxGeometry width="200" relative="1" as="geometry">
            <mxPoint x="410" y="850" as="sourcePoint" />
            <mxPoint x="240" y="915" as="targetPoint" />
          </mxGeometry>
        </mxCell>
        <mxCell id="nQnoEyGICxjIxf7FkVJl-32" value="&lt;div style=&quot;text-align: left&quot;&gt;&lt;div style=&quot;text-align: center&quot;&gt;&lt;b&gt;Http[二进制数据]&lt;/b&gt;&lt;/div&gt;&lt;/div&gt;" style="edgeStyle=none;rounded=0;html=1;entryX=0.5;entryY=1;jettySize=auto;orthogonalLoop=1;strokeColor=#A8A8A8;strokeWidth=2;fontColor=#000000;jumpStyle=none;dashed=1;entryDx=0;entryDy=0;entryPerimeter=0;exitX=1;exitY=0.5;exitDx=0;exitDy=0;exitPerimeter=0;" parent="1" source="nQnoEyGICxjIxf7FkVJl-22" target="nQnoEyGICxjIxf7FkVJl-25" edge="1">
          <mxGeometry width="200" relative="1" as="geometry">
            <mxPoint x="600" y="1040" as="sourcePoint" />
            <mxPoint x="800" y="1030" as="targetPoint" />
          </mxGeometry>
        </mxCell>
        <mxCell id="dtYK3EFexsv6tl9zOkRL-1" value="&lt;div style=&quot;text-align: left&quot;&gt;&lt;b style=&quot;text-align: center&quot;&gt;终端&lt;/b&gt;&lt;br&gt;&lt;/div&gt;" style="rounded=1;whiteSpace=wrap;html=1;labelBackgroundColor=none;fillColor=#ffffff;fontColor=#000000;align=left;arcSize=5;strokeColor=#000000;verticalAlign=bottom;points=[[0.25,0,0],[0.5,0,0],[0.75,0,0],[1,0.25,0],[1,0.5,0],[1,0.75,0],[0.75,1,0],[0.5,1,0],[0.25,1,0],[0,0.75,0],[0,0.5,0],[0,0.25,0]];dashed=1;" vertex="1" parent="1">
          <mxGeometry x="40" y="1190" width="650" height="130" as="geometry" />
        </mxCell>
        <mxCell id="dtYK3EFexsv6tl9zOkRL-2" value="" style="outlineConnect=0;dashed=0;verticalLabelPosition=bottom;verticalAlign=top;align=center;html=1;shape=mxgraph.aws3.utility;fillColor=#5294CF;gradientColor=none;" vertex="1" parent="1">
          <mxGeometry x="55" y="1213.25" width="79.5" height="79.5" as="geometry" />
        </mxCell>
        <mxCell id="dtYK3EFexsv6tl9zOkRL-3" value="" style="outlineConnect=0;dashed=0;verticalLabelPosition=bottom;verticalAlign=top;align=center;html=1;shape=mxgraph.aws3.house;fillColor=#5294CF;gradientColor=none;" vertex="1" parent="1">
          <mxGeometry x="230" y="1213.25" width="79.5" height="79.5" as="geometry" />
        </mxCell>
        <mxCell id="dtYK3EFexsv6tl9zOkRL-4" value="" style="outlineConnect=0;dashed=0;verticalLabelPosition=bottom;verticalAlign=top;align=center;html=1;shape=mxgraph.aws3.generic;fillColor=#5294CF;gradientColor=none;" vertex="1" parent="1">
          <mxGeometry x="380" y="1213.25" width="79.5" height="79.5" as="geometry" />
        </mxCell>
        <mxCell id="dtYK3EFexsv6tl9zOkRL-6" value="" style="outlineConnect=0;dashed=0;verticalLabelPosition=bottom;verticalAlign=top;align=center;html=1;shape=mxgraph.aws3.coffee_pot;fillColor=#5294CF;gradientColor=none;" vertex="1" parent="1">
          <mxGeometry x="560" y="1215.25" width="79.5" height="79.5" as="geometry" />
        </mxCell>
        <mxCell id="dtYK3EFexsv6tl9zOkRL-7" value="&lt;b&gt;LoRa Gateway Bridge&lt;/b&gt;" style="rounded=1;whiteSpace=wrap;html=1;labelBackgroundColor=none;fillColor=#dae8fc;fontColor=#000000;align=center;arcSize=10;strokeColor=#6c8ebf;points=[[0.25,0,0],[0.5,0,0],[0.75,0,0],[1,0.25,0],[1,0.5,0],[1,0.75,0],[0.75,1,0],[0.5,1,0],[0.25,1,0],[0,0.75,0],[0,0.5,0],[0,0.25,0]];dashed=1;" vertex="1" parent="1">
          <mxGeometry x="80" y="860" width="160" height="60" as="geometry" />
        </mxCell>
        <mxCell id="dtYK3EFexsv6tl9zOkRL-8" value="&lt;div style=&quot;text-align: left&quot;&gt;&lt;b style=&quot;text-align: center&quot;&gt;&amp;nbsp;seewo IoT&lt;/b&gt;&lt;br&gt;&lt;/div&gt;" style="rounded=1;whiteSpace=wrap;html=1;labelBackgroundColor=none;fillColor=#ffffff;fontColor=#000000;align=left;arcSize=5;strokeColor=#000000;verticalAlign=bottom;points=[[0.25,0,0],[0.5,0,0],[0.75,0,0],[1,0.25,0],[1,0.5,0],[1,0.75,0],[0.75,1,0],[0.5,1,0],[0.25,1,0],[0,0.75,0],[0,0.5,0],[0,0.25,0]];dashed=1;" vertex="1" parent="1">
          <mxGeometry x="40" y="340" width="650" height="270" as="geometry" />
        </mxCell>
        <mxCell id="dtYK3EFexsv6tl9zOkRL-15" value="&lt;b&gt;Rule&lt;br&gt;&lt;/b&gt;" style="rounded=1;whiteSpace=wrap;html=1;labelBackgroundColor=none;fillColor=#dae8fc;fontColor=#000000;align=center;arcSize=10;strokeColor=#6c8ebf;points=[[0.25,0,0],[0.5,0,0],[0.75,0,0],[1,0.25,0],[1,0.5,0],[1,0.75,0],[0.75,1,0],[0.5,1,0],[0.25,1,0],[0,0.75,0],[0,0.5,0],[0,0.25,0]];dashed=1;" vertex="1" parent="1">
          <mxGeometry x="440" y="360" width="160" height="70" as="geometry" />
        </mxCell>
        <mxCell id="dtYK3EFexsv6tl9zOkRL-16" value="&lt;b&gt;IoT Service&lt;/b&gt;" style="rounded=1;whiteSpace=wrap;html=1;labelBackgroundColor=none;fillColor=#dae8fc;fontColor=#000000;align=center;arcSize=10;strokeColor=#6c8ebf;points=[[0.25,0,0],[0.5,0,0],[0.75,0,0],[1,0.25,0],[1,0.5,0],[1,0.75,0],[0.75,1,0],[0.5,1,0],[0.25,1,0],[0,0.75,0],[0,0.5,0],[0,0.25,0]];dashed=1;" vertex="1" parent="1">
          <mxGeometry x="440" y="520" width="160" height="60" as="geometry" />
        </mxCell>
        <mxCell id="dtYK3EFexsv6tl9zOkRL-17" value="&lt;div style=&quot;text-align: left&quot;&gt;&lt;div style=&quot;text-align: center&quot;&gt;&lt;b&gt;Dubbo&lt;/b&gt;&lt;/div&gt;&lt;/div&gt;" style="edgeStyle=none;rounded=0;html=1;jettySize=auto;orthogonalLoop=1;strokeColor=#A8A8A8;strokeWidth=2;fontColor=#000000;jumpStyle=none;exitX=0.5;exitY=1;exitDx=0;exitDy=0;exitPerimeter=0;startArrow=classic;startFill=1;" edge="1" parent="1" source="dtYK3EFexsv6tl9zOkRL-15" target="dtYK3EFexsv6tl9zOkRL-16">
          <mxGeometry width="200" relative="1" as="geometry">
            <mxPoint x="375.53" y="410" as="sourcePoint" />
            <mxPoint x="490" y="530" as="targetPoint" />
          </mxGeometry>
        </mxCell>
        <mxCell id="dtYK3EFexsv6tl9zOkRL-18" value="&lt;div style=&quot;text-align: left&quot;&gt;&lt;div style=&quot;text-align: center&quot;&gt;&lt;b&gt;MQ/Dubbo&lt;/b&gt;&lt;/div&gt;&lt;/div&gt;" style="edgeStyle=none;rounded=0;html=1;jettySize=auto;orthogonalLoop=1;strokeColor=#A8A8A8;strokeWidth=2;fontColor=#000000;jumpStyle=none;exitX=0;exitY=0.5;exitDx=0;exitDy=0;exitPerimeter=0;startArrow=classic;startFill=1;entryX=1;entryY=0.5;entryDx=0;entryDy=0;entryPerimeter=0;" edge="1" parent="1" source="dtYK3EFexsv6tl9zOkRL-16" target="dtYK3EFexsv6tl9zOkRL-19">
          <mxGeometry width="200" relative="1" as="geometry">
            <mxPoint x="400" y="510" as="sourcePoint" />
            <mxPoint x="230" y="575" as="targetPoint" />
          </mxGeometry>
        </mxCell>
        <mxCell id="dtYK3EFexsv6tl9zOkRL-19" value="&lt;b&gt;Broker&lt;/b&gt;" style="rounded=1;whiteSpace=wrap;html=1;labelBackgroundColor=none;fillColor=#dae8fc;fontColor=#000000;align=center;arcSize=10;strokeColor=#6c8ebf;points=[[0.25,0,0],[0.5,0,0],[0.75,0,0],[1,0.25,0],[1,0.5,0],[1,0.75,0],[0.75,1,0],[0.5,1,0],[0.25,1,0],[0,0.75,0],[0,0.5,0],[0,0.25,0]];dashed=1;" vertex="1" parent="1">
          <mxGeometry x="70" y="520" width="160" height="60" as="geometry" />
        </mxCell>
        <mxCell id="nQnoEyGICxjIxf7FkVJl-28" value="&lt;div style=&quot;text-align: left&quot;&gt;&lt;div style=&quot;text-align: center&quot;&gt;&lt;b&gt;MQ/Dubbo[json数据]&lt;/b&gt;&lt;/div&gt;&lt;/div&gt;" style="edgeStyle=none;rounded=0;html=1;jettySize=auto;orthogonalLoop=1;strokeColor=#A8A8A8;strokeWidth=2;fontColor=#000000;jumpStyle=none;dashed=1;exitX=0.5;exitY=0;exitDx=0;exitDy=0;exitPerimeter=0;entryX=1;entryY=0.5;entryDx=0;entryDy=0;entryPerimeter=0;startArrow=classic;startFill=1;endArrow=none;endFill=0;" parent="1" source="nQnoEyGICxjIxf7FkVJl-25" target="dtYK3EFexsv6tl9zOkRL-15" edge="1">
          <mxGeometry width="200" relative="1" as="geometry">
            <mxPoint x="580" y="630" as="sourcePoint" />
            <mxPoint x="489" y="576.6798418972332" as="targetPoint" />
          </mxGeometry>
        </mxCell>
        <mxCell id="dtYK3EFexsv6tl9zOkRL-20" value="&lt;div style=&quot;text-align: left&quot;&gt;&lt;div style=&quot;text-align: center&quot;&gt;&lt;b&gt;UDP[二进制数据]&lt;/b&gt;&lt;/div&gt;&lt;/div&gt;" style="edgeStyle=none;rounded=0;html=1;jettySize=auto;orthogonalLoop=1;strokeColor=#A8A8A8;strokeWidth=2;fontColor=#000000;jumpStyle=none;startArrow=classic;startFill=1;exitX=0.5;exitY=1;exitDx=0;exitDy=0;exitPerimeter=0;entryX=0.5;entryY=0;entryDx=0;entryDy=0;entryPerimeter=0;" edge="1" parent="1" source="dtYK3EFexsv6tl9zOkRL-7" target="dtYK3EFexsv6tl9zOkRL-22">
          <mxGeometry x="0.4631" width="200" relative="1" as="geometry">
            <mxPoint x="350" y="1040" as="sourcePoint" />
            <mxPoint x="370" y="1060" as="targetPoint" />
            <mxPoint as="offset" />
          </mxGeometry>
        </mxCell>
        <mxCell id="dtYK3EFexsv6tl9zOkRL-22" value="&lt;b&gt;LoRa Gateway&amp;nbsp;&lt;/b&gt;" style="rounded=1;whiteSpace=wrap;html=1;labelBackgroundColor=none;fillColor=#dae8fc;fontColor=#000000;align=center;arcSize=10;strokeColor=#6c8ebf;points=[[0.25,0,0],[0.5,0,0],[0.75,0,0],[1,0.25,0],[1,0.5,0],[1,0.75,0],[0.75,1,0],[0.5,1,0],[0.25,1,0],[0,0.75,0],[0,0.5,0],[0,0.25,0]];dashed=1;" vertex="1" parent="1">
          <mxGeometry x="254" y="1030" width="160" height="110.00000000000001" as="geometry" />
        </mxCell>
        <mxCell id="dtYK3EFexsv6tl9zOkRL-24" value="&lt;div style=&quot;text-align: left&quot;&gt;&lt;div style=&quot;text-align: center&quot;&gt;&lt;b&gt;LoRa&lt;/b&gt;&lt;/div&gt;&lt;/div&gt;" style="edgeStyle=none;rounded=0;html=1;jettySize=auto;orthogonalLoop=1;strokeColor=#A8A8A8;strokeWidth=2;fontColor=#000000;jumpStyle=none;startArrow=classic;startFill=1;exitX=0.5;exitY=1;exitDx=0;exitDy=0;exitPerimeter=0;entryX=0.454;entryY=0;entryDx=0;entryDy=0;entryPerimeter=0;" edge="1" parent="1" source="dtYK3EFexsv6tl9zOkRL-22" target="dtYK3EFexsv6tl9zOkRL-1">
          <mxGeometry x="-0.1775" y="26" width="200" relative="1" as="geometry">
            <mxPoint x="170" y="930" as="sourcePoint" />
            <mxPoint x="344" y="1040" as="targetPoint" />
            <mxPoint as="offset" />
          </mxGeometry>
        </mxCell>
        <mxCell id="dtYK3EFexsv6tl9zOkRL-26" value="&lt;div style=&quot;text-align: left&quot;&gt;&lt;div style=&quot;text-align: center&quot;&gt;&lt;b&gt;Http[二进制数据]&lt;/b&gt;&lt;/div&gt;&lt;/div&gt;" style="edgeStyle=none;rounded=0;html=1;jettySize=auto;orthogonalLoop=1;strokeColor=#A8A8A8;strokeWidth=2;fontColor=#000000;jumpStyle=none;startArrow=classic;startFill=1;exitX=0.556;exitY=1.017;exitDx=0;exitDy=0;exitPerimeter=0;endArrow=classic;endFill=1;" edge="1" parent="1" source="dtYK3EFexsv6tl9zOkRL-16" target="nQnoEyGICxjIxf7FkVJl-22">
          <mxGeometry x="-0.005" y="31" width="200" relative="1" as="geometry">
            <mxPoint x="180" y="940" as="sourcePoint" />
            <mxPoint x="354" y="1050" as="targetPoint" />
            <mxPoint as="offset" />
          </mxGeometry>
        </mxCell>
        <mxCell id="dtYK3EFexsv6tl9zOkRL-28" value="&lt;div style=&quot;text-align: left&quot;&gt;&lt;div style=&quot;text-align: center&quot;&gt;&lt;b&gt;Http[json数据]&lt;/b&gt;&lt;/div&gt;&lt;/div&gt;" style="edgeStyle=none;rounded=0;html=1;jettySize=auto;orthogonalLoop=1;strokeColor=#A8A8A8;strokeWidth=2;fontColor=#000000;jumpStyle=none;startArrow=classic;startFill=1;exitX=1;exitY=0.5;exitDx=0;exitDy=0;exitPerimeter=0;endArrow=none;endFill=0;entryX=0.5;entryY=0;entryDx=0;entryDy=0;entryPerimeter=0;dashed=1;" edge="1" parent="1" source="dtYK3EFexsv6tl9zOkRL-16" target="nQnoEyGICxjIxf7FkVJl-25">
          <mxGeometry x="-0.0302" width="200" relative="1" as="geometry">
            <mxPoint x="538.96" y="591.02" as="sourcePoint" />
            <mxPoint x="920" y="570" as="targetPoint" />
            <mxPoint as="offset" />
          </mxGeometry>
        </mxCell>
      </root>
    </mxGraphModel>
  </diagram>
</mxfile>
